<mxfile host="65bd71144e">
    <diagram id="y0oEIvL1JMmnir8tbCMQ" name="Página-1">
        <mxGraphModel dx="1179" dy="1420" grid="1" gridSize="10" guides="1" tooltips="1" connect="1" arrows="1" fold="1" page="1" pageScale="1" pageWidth="827" pageHeight="1169" math="0" shadow="0">
            <root>
                <mxCell id="0"/>
                <mxCell id="1" parent="0"/>
                <mxCell id="18" value="JSON" style="rounded=1;whiteSpace=wrap;html=1;verticalAlign=top;" vertex="1" parent="1">
                    <mxGeometry x="-330" y="250" width="120" height="90" as="geometry"/>
                </mxCell>
                <mxCell id="2" value="ARQUITETURA N-LAYERS PARA PROJETOS NODEJS" style="text;html=1;align=center;verticalAlign=middle;whiteSpace=wrap;rounded=0;" vertex="1" parent="1">
                    <mxGeometry x="-70" y="-110" width="340" height="30" as="geometry"/>
                </mxCell>
                <mxCell id="10" style="edgeStyle=none;html=1;exitX=1;exitY=0.25;exitDx=0;exitDy=0;entryX=0;entryY=0.25;entryDx=0;entryDy=0;" edge="1" parent="1" source="3" target="4">
                    <mxGeometry relative="1" as="geometry">
                        <mxPoint x="100" y="250" as="targetPoint"/>
                    </mxGeometry>
                </mxCell>
                <mxCell id="11" style="edgeStyle=none;html=1;exitX=1;exitY=0.755;exitDx=0;exitDy=0;exitPerimeter=0;" edge="1" parent="1" source="3">
                    <mxGeometry relative="1" as="geometry">
                        <mxPoint x="140" y="420" as="targetPoint"/>
                    </mxGeometry>
                </mxCell>
                <mxCell id="12" style="edgeStyle=none;html=1;" edge="1" parent="1" source="3">
                    <mxGeometry relative="1" as="geometry">
                        <mxPoint x="-370.0000000000002" y="300" as="targetPoint"/>
                    </mxGeometry>
                </mxCell>
                <mxCell id="3" value="PÓRT: 4545" style="rounded=0;whiteSpace=wrap;html=1;" vertex="1" parent="1">
                    <mxGeometry x="-170" y="50" width="120" height="490" as="geometry"/>
                </mxCell>
                <mxCell id="4" value="" style="rounded=0;whiteSpace=wrap;html=1;" vertex="1" parent="1">
                    <mxGeometry x="140" y="-10" width="1240" height="730" as="geometry"/>
                </mxCell>
                <mxCell id="17" style="edgeStyle=none;html=1;entryX=1;entryY=0.25;entryDx=0;entryDy=0;exitX=0;exitY=0.25;exitDx=0;exitDy=0;" edge="1" parent="1" source="4" target="3">
                    <mxGeometry relative="1" as="geometry">
                        <mxPoint x="110" y="130" as="sourcePoint"/>
                    </mxGeometry>
                </mxCell>
                <mxCell id="5" value="PLAYERS CONTROLLER" style="rounded=1;whiteSpace=wrap;html=1;" vertex="1" parent="1">
                    <mxGeometry x="160" y="150" width="120" height="60" as="geometry"/>
                </mxCell>
                <mxCell id="16" style="edgeStyle=none;html=1;exitX=0;exitY=0.588;exitDx=0;exitDy=0;exitPerimeter=0;" edge="1" parent="1" source="4">
                    <mxGeometry relative="1" as="geometry">
                        <mxPoint x="-50" y="420" as="targetPoint"/>
                        <mxPoint x="70" y="380" as="sourcePoint"/>
                    </mxGeometry>
                </mxCell>
                <mxCell id="6" value="CLUBS CONTROLLER" style="rounded=1;whiteSpace=wrap;html=1;" vertex="1" parent="1">
                    <mxGeometry x="160" y="390" width="120" height="60" as="geometry"/>
                </mxCell>
                <mxCell id="8" style="edgeStyle=none;html=1;strokeColor=default;" edge="1" parent="1" source="7" target="3">
                    <mxGeometry relative="1" as="geometry"/>
                </mxCell>
                <mxCell id="14" value="RESQUEST" style="edgeLabel;html=1;align=center;verticalAlign=middle;resizable=0;points=[];" vertex="1" connectable="0" parent="8">
                    <mxGeometry x="-0.0743" y="-3" relative="1" as="geometry">
                        <mxPoint y="-13" as="offset"/>
                    </mxGeometry>
                </mxCell>
                <mxCell id="15" value="RESPONSE" style="edgeLabel;html=1;align=center;verticalAlign=middle;resizable=0;points=[];" vertex="1" connectable="0" parent="8">
                    <mxGeometry x="-0.0743" y="-3" relative="1" as="geometry">
                        <mxPoint y="7" as="offset"/>
                    </mxGeometry>
                </mxCell>
                <mxCell id="7" value="CLIENT" style="rounded=0;whiteSpace=wrap;html=1;" vertex="1" parent="1">
                    <mxGeometry x="-700" y="60" width="330" height="480" as="geometry"/>
                </mxCell>
                <mxCell id="30" style="edgeStyle=none;html=1;exitX=1;exitY=0.5;exitDx=0;exitDy=0;entryX=0;entryY=0.5;entryDx=0;entryDy=0;" edge="1" parent="1" source="21" target="28">
                    <mxGeometry relative="1" as="geometry"/>
                </mxCell>
                <mxCell id="52" style="edgeStyle=none;html=1;exitX=1;exitY=0.5;exitDx=0;exitDy=0;entryX=0;entryY=0.5;entryDx=0;entryDy=0;" edge="1" parent="1" source="28" target="51">
                    <mxGeometry relative="1" as="geometry"/>
                </mxCell>
                <mxCell id="28" value="REPOSITORIES" style="rounded=0;whiteSpace=wrap;html=1;verticalAlign=top;" vertex="1" parent="1">
                    <mxGeometry x="640" y="90" width="330" height="400" as="geometry"/>
                </mxCell>
                <mxCell id="29" value="getPlayerById" style="rounded=1;whiteSpace=wrap;html=1;" vertex="1" parent="1">
                    <mxGeometry x="665" y="120" width="280" height="30" as="geometry"/>
                </mxCell>
                <mxCell id="31" value="SERVICES.TS" style="rounded=1;whiteSpace=wrap;html=1;" vertex="1" parent="1">
                    <mxGeometry x="180" y="10" width="100" height="30" as="geometry"/>
                </mxCell>
                <mxCell id="32" value="" style="group" vertex="1" connectable="0" parent="1">
                    <mxGeometry x="290" y="70" width="330" height="440" as="geometry"/>
                </mxCell>
                <mxCell id="21" value="SERVICES" style="rounded=0;whiteSpace=wrap;html=1;verticalAlign=top;" vertex="1" parent="32">
                    <mxGeometry width="330" height="440" as="geometry"/>
                </mxCell>
                <mxCell id="22" value="GET API/PLAYERS/LIST" style="rounded=1;whiteSpace=wrap;html=1;" vertex="1" parent="32">
                    <mxGeometry x="21" y="50" width="280" height="30" as="geometry"/>
                </mxCell>
                <mxCell id="23" value="POST API/PLAYERS" style="rounded=1;whiteSpace=wrap;html=1;" vertex="1" parent="32">
                    <mxGeometry x="21" y="130" width="280" height="30" as="geometry"/>
                </mxCell>
                <mxCell id="24" value="DELETE API/PLAYERS/{ID}" style="rounded=1;whiteSpace=wrap;html=1;" vertex="1" parent="32">
                    <mxGeometry x="21" y="171" width="280" height="30" as="geometry"/>
                </mxCell>
                <mxCell id="25" value="PATCH API/PLAYERS/{ID}" style="rounded=1;whiteSpace=wrap;html=1;" vertex="1" parent="32">
                    <mxGeometry x="21" y="211" width="280" height="30" as="geometry"/>
                </mxCell>
                <mxCell id="26" value="GET API/PLAYERS/{ID}" style="rounded=1;whiteSpace=wrap;html=1;" vertex="1" parent="32">
                    <mxGeometry x="21" y="90" width="280" height="30" as="geometry"/>
                </mxCell>
                <mxCell id="27" value="GET API/CLUBS/LIST" style="rounded=1;whiteSpace=wrap;html=1;" vertex="1" parent="32">
                    <mxGeometry x="25" y="335" width="280" height="30" as="geometry"/>
                </mxCell>
                <mxCell id="33" value="APP.TS" style="rounded=1;whiteSpace=wrap;html=1;" vertex="1" parent="1">
                    <mxGeometry x="300" y="10" width="100" height="30" as="geometry"/>
                </mxCell>
                <mxCell id="34" value="ROUTES.TS" style="rounded=1;whiteSpace=wrap;html=1;" vertex="1" parent="1">
                    <mxGeometry x="423.5" y="10" width="100" height="30" as="geometry"/>
                </mxCell>
                <mxCell id="37" value="MODELS" style="rounded=0;whiteSpace=wrap;html=1;verticalAlign=top;" vertex="1" parent="1">
                    <mxGeometry x="290" y="550" width="330" height="140" as="geometry"/>
                </mxCell>
                <mxCell id="38" value="PLAYERS MODEL" style="rounded=1;whiteSpace=wrap;html=1;" vertex="1" parent="1">
                    <mxGeometry x="311" y="600" width="280" height="30" as="geometry"/>
                </mxCell>
                <mxCell id="42" value="CLUB MODEL" style="rounded=1;whiteSpace=wrap;html=1;" vertex="1" parent="1">
                    <mxGeometry x="311" y="640" width="280" height="30" as="geometry"/>
                </mxCell>
                <mxCell id="45" value="getListPlayers" style="rounded=1;whiteSpace=wrap;html=1;" vertex="1" parent="1">
                    <mxGeometry x="665" y="165" width="280" height="30" as="geometry"/>
                </mxCell>
                <mxCell id="46" value="insertPleyer" style="rounded=1;whiteSpace=wrap;html=1;" vertex="1" parent="1">
                    <mxGeometry x="665" y="210" width="280" height="30" as="geometry"/>
                </mxCell>
                <mxCell id="47" value="deletePlayerById" style="rounded=1;whiteSpace=wrap;html=1;" vertex="1" parent="1">
                    <mxGeometry x="665" y="254" width="280" height="30" as="geometry"/>
                </mxCell>
                <mxCell id="48" value="updatePlayerById" style="rounded=1;whiteSpace=wrap;html=1;" vertex="1" parent="1">
                    <mxGeometry x="665" y="300" width="280" height="30" as="geometry"/>
                </mxCell>
                <mxCell id="49" value="getListClubs" style="rounded=1;whiteSpace=wrap;html=1;" vertex="1" parent="1">
                    <mxGeometry x="665" y="405" width="280" height="30" as="geometry"/>
                </mxCell>
                <mxCell id="51" value="DATA" style="rounded=0;whiteSpace=wrap;html=1;verticalAlign=top;" vertex="1" parent="1">
                    <mxGeometry x="1000" y="230" width="330" height="120" as="geometry"/>
                </mxCell>
                <mxCell id="53" value="JSON" style="rounded=1;whiteSpace=wrap;html=1;" vertex="1" parent="1">
                    <mxGeometry x="1025" y="275" width="280" height="30" as="geometry"/>
                </mxCell>
            </root>
        </mxGraphModel>
    </diagram>
</mxfile>